:FULLY-SPECIFIED
:FORCE-ALL-JOINTS-BE-3DOF
:DEGREES
2956
root -2.13197 15.4677 -30.3988 1171.01 -32.4359 -92.3409
lfemur -34.0294 20.9117 -6.66359
ltibia 46.5764 0 0
lfoot -4.49547 4.25272 0
ltoes -26.2304 0 0
rfemur -24.6616 -10.4844 18.4461
rtibia 61.1594 0 0
rfoot -23.1339 -20.2034 0
rtoes -16.3104 0 0
lowerback 11.2152 4.12748 0.260613
upperback -3.44077 5.77425 1.66233
thorax -10.0774 2.78339 0.319812
lowerneck -4.51741 3.15428 -1.89776
upperneck 9.83976 4.06979 3.24204
head 4.06888 2.10003 1.38584
lclavicle 2.12086e-15 -4.81583e-15 0
lhumerus -18.25 3.62339 89.1879
lradius 66.1247 0 0
lwrist -18.7279 0 0
lhand -37.5869 389.865 0
lfingers 7.12502 0 0
lthumb -10.6394 -660.455 0
rclavicle 2.12086e-15 -4.81583e-15 0
rhumerus -49.6384 30.0196 -96.8833
rradius 78.56 0 0
rwrist -48.6921 0 0
rhand -6.45066 -390.735 0
rfingers 7.12502 0 0
rthumb 19.3732 300.538 0
2957
root -2.11896 15.4735 -30.4097 1170.66 -32.297 -91.9856
lfemur -33.9555 20.822 -6.67205
ltibia 46.5318 0 0
lfoot -4.54517 4.27831 0
ltoes -26.2847 0 0
rfemur -24.6342 -10.4434 18.4449
rtibia 61.0682 0 0
rfoot -23.0908 -20.2 0
rtoes -16.3175 0 0
lowerback 11.1944 4.11893 0.256362
upperback -3.44486 5.76211 1.66291
thorax -10.0699 2.77804 0.32651
lowerneck -4.52422 3.12223 -1.91945
upperneck 9.84992 4.02732 3.2534
head 4.07334 2.07892 1.39095
lclavicle 2.23558e-15 -4.73818e-15 0
lhumerus -18.3027 3.58436 89.1961
lradius 65.9693 0 0
lwrist -18.7309 0 0
lhand -37.5708 389.87 0
lfingers 7.12502 0 0
lthumb -10.6239 -660.449 0
rclavicle 2.23558e-15 -4.73818e-15 0
rhumerus -49.5851 29.925 -96.8219
rradius 78.3852 0 0
rwrist -48.4912 0 0
rhand -6.4966 -390.752 0
rfingers 7.12502 0 0
rthumb 19.3291 300.517 0
2958
root -2.10594 15.4793 -30.4207 1170.31 -32.1581 -91.6302
lfemur -33.8816 20.7323 -6.68053
ltibia 46.4871 0 0
lfoot -4.59489 4.30392 0
ltoes -26.339 0 0
rfemur -24.6068 -10.4024 18.4437
rtibia 60.9769 0 0
rfoot -23.0477 -20.1967 0
rtoes -16.3246 0 0
lowerback 11.1735 4.11038 0.252107
upperback -3.44896 5.74996 1.66349
thorax -10.0624 2.7727 0.333213
lowerneck -4.53103 3.09017 -1.94115
upperneck 9.86007 3.98485 3.26475
head 4.07779 2.05781 1.39607
lclavicle 2.35043e-15 -4.66046e-15 0
lhumerus -18.3553 3.54524 89.2041
lradius 65.8138 0 0
lwrist -18.7339 0 0
lhand -37.5547 389.875 0
lfingers 7.12502 0 0
lthumb -10.6084 -660.443 0
rclavicle 2.35043e-15 -4.66046e-15 0
rhumerus -49.5316 29.8304 -96.7604
rradius 78.2104 0 0
rwrist -48.29 0 0
rhand -6.54255 -390.769 0
rfingers 7.12502 0 0
rthumb 19.2849 300.496 0
2959
root -2.09291 15.485 -30.4317 1169.97 -32.0192 -91.2747
lfemur -33.8077 20.6425 -6.68902
ltibia 46.4424 0 0
lfoot -4.64463 4.32956 0
ltoes -26.3934 0 0
rfemur -24.5794 -10.3613 18.4425
rtibia 60.8856 0 0
rfoot -23.0046 -20.1933 0
rtoes -16.3318 0 0
lowerback 11.1527 4.10182 0.247848
upperback -3.45305 5.7378 1.66407
thorax -10.0549 2.76734 0.339919
lowerneck -4.53784 3.0581 -1.96286
upperneck 9.87022 3.94236 3.27612
head 4.08225 2.03669 1.40118
lclavicle 2.4654e-15 -4.58267e-15 0
lhumerus -18.4077 3.50604 89.2121
lradius 65.6584 0 0
lwrist -18.7368 0 0
lhand -37.5386 389.88 0
lfingers 7.12502 0 0
lthumb -10.5928 -660.437 0
rclavicle 2.4654e-15 -4.58267e-15 0
rhumerus -49.478 29.7358 -96.6988
rradius 78.0355 0 0
rwrist -48.0888 0 0
rhand -6.58852 -390.785 0
rfingers 7.12502 0 0
rthumb 19.2407 300.475 0
2960
root -2.07987 15.4908 -30.4426 1169.62 -31.8804 -90.9192
lfemur -33.7338 20.5527 -6.69752
ltibia 46.3978 0 0
lfoot -4.69438 4.35521 0
ltoes -26.4478 0 0
rfemur -24.552 -10.3202 18.4412
rtibia 60.7942 0 0
rfoot -22.9614 -20.1899 0
rtoes -16.3389 0 0
lowerback 11.1319 4.09326 0.243585
upperback -3.45713 5.72563 1.66465
thorax -10.0474 2.76199 0.346629
lowerneck -4.54465 3.02602 -1.98458
upperneck 9.88036 3.89986 3.28748
head 4.0867 2.01556 1.4063
lclavicle 2.58051e-15 -4.50481e-15 0
lhumerus -18.4601 3.46676 89.22
lradius 65.5029 0 0
lwrist -18.7398 0 0
lhand -37.5225 389.885 0
lfingers 7.12502 0 0
lthumb -10.5773 -660.432 0
rclavicle 2.58051e-15 -4.50481e-15 0
rhumerus -49.4243 29.6412 -96.6372
rradius 77.8605 0 0
rwrist -47.8874 0 0
rhand -6.6345 -390.802 0
rfingers 7.12502 0 0
rthumb 19.1965 300.454 0
2961
root -2.06682 15.4966 -30.4536 1169.28 -31.7415 -90.5636
lfemur -33.6599 20.4628 -6.70604
ltibia 46.3532 0 0
lfoot -4.74415 4.38088 0
ltoes -26.5022 0 0
rfemur -24.5246 -10.2792 18.44
rtibia 60.7028 0 0
rfoot -22.9183 -20.1865 0
rtoes -16.346 0 0
lowerback 11.1111 4.08469 0.239317
upperback -3.46122 5.71346 1.66523
thorax -10.0399 2.75663 0.353343
lowerneck -4.55146 2.99394 -2.00632
upperneck 9.8905 3.85736 3.29885
head 4.09115 1.99443 1.41142
lclavicle 2.69573e-15 -4.42688e-15 0
lhumerus -18.5123 3.42741 89.2279
lradius 65.3475 0 0
lwrist -18.7428 0 0
lhand -37.5064 389.89 0
lfingers 7.12502 0 0
lthumb -10.5617 -660.426 0
rclavicle 2.69573e-15 -4.42688e-15 0
rhumerus -49.3705 29.5466 -96.5754
rradius 77.6855 0 0
rwrist -47.6859 0 0
rhand -6.68049 -390.819 0
rfingers 7.12502 0 0
rthumb 19.1523 300.433 0
2962
root -2.05376 15.5023 -30.4646 1168.93 -31.6026 -90.2079
lfemur -33.586 20.3729 -6.71457
ltibia 46.3085 0 0
lfoot -4.79395 4.40657 0
ltoes -26.5567 0 0
rfemur -24.4973 -10.2381 18.4389
rtibia 60.6114 0 0
rfoot -22.8751 -20.183 0
rtoes -16.353 0 0
lowerback 11.0903 4.07611 0.235046
upperback -3.4653 5.70128 1.66581
thorax -10.0324 2.75127 0.360059
lowerneck -4.55828 2.96185 -2.02806
upperneck 9.90063 3.81484 3.31021
head 4.09559 1.9733 1.41654
lclavicle 2.81108e-15 -4.34889e-15 0
lhumerus -18.5644 3.38797 89.2356
lradius 65.192 0 0
lwrist -18.7459 0 0
lhand -37.4903 389.895 0
lfingers 7.12502 0 0
lthumb -10.5462 -660.42 0
rclavicle 2.81108e-15 -4.34889e-15 0
rhumerus -49.3166 29.4521 -96.5136
rradius 77.5104 0 0
rwrist -47.4842 0 0
rhand -6.7265 -390.835 0
rfingers 7.12502 0 0
rthumb 19.108 300.412 0
2963
root -2.0407 15.5081 -30.4755 1168.58 -31.4637 -89.8522
lfemur -33.5121 20.283 -6.72312
ltibia 46.2639 0 0
lfoot -4.84375 4.43228 0
ltoes -26.6112 0 0
rfemur -24.4699 -10.197 18.4377
rtibia 60.52 0 0
rfoot -22.8319 -20.1795 0
rtoes -16.3601 0 0
lowerback 11.0695 4.06753 0.23077
upperback -3.46937 5.68909 1.66639
thorax -10.0249 2.74591 0.36678
lowerneck -4.56509 2.92975 -2.04981
upperneck 9.91076 3.77232 3.32158
head 4.10004 1.95216 1.42166
lclavicle 2.92654e-15 -4.27084e-15 0
lhumerus -18.6164 3.34846 89.2433
lradius 65.0365 0 0
lwrist -18.7489 0 0
lhand -37.4741 389.9 0
lfingers 7.12502 0 0
lthumb -10.5306 -660.414 0
rclavicle 2.92654e-15 -4.27084e-15 0
rhumerus -49.2625 29.3575 -96.4517
rradius 77.3352 0 0
rwrist -47.2824 0 0
rhand -6.77252 -390.852 0
rfingers 7.12502 0 0
rthumb 19.0638 300.391 0
2964
root -2.02763 15.5139 -30.4865 1168.24 -31.3248 -89.4964
lfemur -33.4382 20.193 -6.73168
ltibia 46.2193 0 0
lfoot -4.89357 4.458 0
ltoes -26.6657 0 0
rfemur -24.4425 -10.1559 18.4365
rtibia 60.4285 0 0
rfoot -22.7886 -20.176 0
rtoes -16.3671 0 0
lowerback 11.0487 4.05895 0.226491
upperback -3.47345 5.67689 1.66696
thorax -10.0174 2.74054 0.373503
lowerneck -4.5719 2.89765 -2.07157
upperneck 9.92089 3.72979 3.33296
head 4.10448 1.93102 1.42679
lclavicle 3.04212e-15 -4.19272e-15 0
lhumerus -18.6682 3.30888 89.2508
lradius 64.881 0 0
lwrist -18.752 0 0
lhand -37.458 389.905 0
lfingers 7.12502 0 0
lthumb -10.515 -660.409 0
rclavicle 3.04212e-15 -4.19272e-15 0
rhumerus -49.2083 29.2631 -96.3898
rradius 77.1601 0 0
rwrist -47.0805 0 0
rhand -6.81856 -390.869 0
rfingers 7.12502 0 0
rthumb 19.0195 300.37 0
